<svg width="1920" height="815" viewBox="0 0 1920 815" fill="none" xmlns="http://www.w3.org/2000/svg">
<path opacity="0.5" d="M621.931 112.039H860.892C870.52 101.464 850.015 71.4166 821.557 70.3545C793.1 69.2923 731.206 99.5525 712.447 99.5525C693.688 99.5525 674.716 90.4414 658.906 90.0166C643.12 89.6153 621.931 112.039 621.931 112.039Z" fill="#F8F8F8"/>
<path d="M503.807 46.0896C537.856 16.7971 603.667 -6.2403 618.674 2.46955C633.682 11.1794 628.986 21.7304 636.679 23.005C644.395 24.2796 683.234 4.35786 696.071 12.3832C707.893 19.7948 700.224 42.195 692.909 46.0896H503.807V46.0896Z" fill="#FBFBFB"/>
<path d="M1610.27 67.6872H1821.27C1836.04 61.503 1842.15 33.4143 1825.87 29.3308C1817.66 27.2537 1780.64 46.8685 1773.11 42.6198C1766.88 39.1265 1774.46 13.5398 1756.64 13.5398C1731.49 13.5398 1694.3 53.2652 1677.73 53.2652C1661.17 53.2652 1656.92 44.2721 1642.95 43.8236C1628.96 43.3752 1610.27 67.6872 1610.27 67.6872Z" fill="#FAFAFA"/>
<path d="M1194.05 252.13C1192.19 250.855 1190.32 249.604 1188.44 248.353C1190.21 249.746 1192.07 251.044 1194.05 252.13Z" fill="#4982C7"/>
<path d="M1044.07 587.471L1045.91 587.235L1045.3 585.488C1043.41 580.059 1040.32 578.761 1036.76 577.274C1035.7 576.826 1034.54 576.33 1033.29 575.693C1030.72 574.371 1028.76 572.506 1026.68 570.523C1024.35 568.305 1021.96 566.015 1018.59 564.528C1008.68 560.185 992.985 559.241 981.801 560.232L980.715 560.326L980.456 561.389C979.984 563.395 980.243 565.094 981.211 566.416C983.217 569.178 987.605 569.579 991.853 569.98C994.236 570.193 996.714 570.429 997.964 571.09L1013.56 574.937L1013.75 574.961C1018.21 575.504 1021.96 578.147 1025.93 580.933C1030.62 584.237 1035.44 587.636 1041.74 587.636C1042.49 587.636 1043.27 587.589 1044.07 587.471ZM1027.67 578.454C1023.61 575.575 1019.39 572.624 1014.22 571.963L999.239 568.328C997.469 567.455 994.873 567.219 992.16 566.983C988.738 566.676 984.892 566.322 983.688 564.67C983.405 564.268 983.264 563.773 983.287 563.159C993.693 562.404 1008.39 563.348 1017.41 567.313C1020.26 568.564 1022.39 570.594 1024.6 572.719C1026.73 574.748 1028.95 576.849 1031.9 578.383C1033.24 579.068 1034.47 579.587 1035.58 580.059C1038.36 581.239 1040.25 582.018 1041.64 584.615C1036.33 584.568 1032.11 581.594 1027.67 578.454Z" fill="white"/>
<path d="M1023.21 597.998C1022.2 598.777 1021.61 599.981 1021.44 601.586L1021.37 602.365L1021.96 602.884C1023.64 604.301 1025.53 605.056 1027.29 605.056C1027.81 605.056 1028.31 604.985 1028.81 604.867C1030.57 604.395 1031.97 603.12 1032.72 601.256L1034.8 598.022L1032.32 597.786C1031.68 597.715 1030.98 597.597 1030.24 597.479C1027.86 597.031 1025.12 596.535 1023.21 597.998ZM1028.07 601.917C1027.06 602.176 1025.81 601.869 1024.63 601.067C1024.72 600.76 1024.86 600.524 1025.05 600.382C1025.9 599.745 1028.03 600.123 1029.75 600.43H1029.77C1029.39 601.232 1028.8 601.728 1028.07 601.917Z" fill="white"/>
<path d="M1068.56 602.884C1071.23 604.537 1073.57 606.024 1074.68 608.832H1079.63C1080.01 608.148 1080.36 607.44 1080.72 606.732C1081.57 605.009 1082.44 603.238 1083.41 602.577C1085.04 601.445 1087.68 601.799 1090.23 602.105C1091.83 602.318 1093.36 602.507 1094.76 602.365L1096.43 602.2L1096.08 600.548C1095.16 596.086 1089.05 595.355 1084.16 594.765C1082.53 594.576 1081 594.387 1079.91 594.08L1074.42 592.782C1073.66 592.711 1072.91 592.569 1072.13 592.451C1068.66 591.861 1064.32 591.153 1061.96 595.591L1061.56 596.37L1062.03 597.101C1063.68 599.816 1066.16 601.374 1068.56 602.884ZM1071.61 595.473C1072.43 595.614 1073.26 595.756 1073.9 595.803L1079.16 597.054C1080.41 597.408 1082.06 597.597 1083.78 597.81C1086.05 598.069 1088.81 598.423 1090.75 599.155C1090.7 599.155 1090.63 599.131 1090.58 599.131C1087.61 598.754 1084.23 598.329 1081.66 600.099C1080.06 601.208 1078.99 603.333 1077.98 605.41C1077.72 605.953 1077.46 606.472 1077.18 606.991C1075.62 603.734 1072.74 601.94 1070.15 600.335C1068.21 599.131 1066.39 597.998 1065.07 596.322C1066.39 594.717 1068.42 594.953 1071.61 595.473Z" fill="white"/>
<path d="M1134.35 300.848C1136.57 301.155 1138.88 301.462 1141.03 301.533L1142.92 301.58L1142.54 299.715C1139.38 283.83 1117.69 271.084 1100.28 260.84C1093.74 256.992 1088.08 253.664 1084.61 250.855L1084.16 250.596C1078.95 248.707 1074.13 245.662 1069.06 242.429C1060.38 236.905 1051.34 231.24 1039.94 231.453C1037.84 231.5 1027.15 232.019 1023.59 237.708C1022.13 240.021 1022.1 242.759 1023.5 245.804C1026.11 251.54 1035.93 254.254 1045.42 256.898C1051.08 258.479 1056.44 259.966 1059.29 261.855L1059.81 262.185C1063.49 264.616 1074.72 272.052 1075.03 277.079C1075.22 280.171 1073.85 280.785 1070.97 281.729C1068.59 282.508 1065.62 283.499 1064.81 287.205C1063.3 294.31 1079.02 299.267 1099.74 304.979C1105.89 306.679 1111.2 308.142 1113.21 309.181C1113.56 309.369 1114.04 309.629 1114.6 309.936C1120.03 312.957 1125.43 315.577 1129.23 315.577C1130.51 315.577 1131.59 315.294 1132.44 314.609C1134.16 313.264 1134.54 310.786 1133.6 307.221L1133.27 305.994L1131.99 306.112C1129.66 306.301 1127.77 305.782 1126.49 304.578C1125.41 303.563 1124.77 302.076 1124.61 300.258C1127.65 299.951 1131.05 300.4 1134.35 300.848ZM1122.79 297.52L1121.61 297.756L1121.59 298.96C1121.52 302.265 1122.51 304.979 1124.47 306.82C1126.12 308.378 1128.36 309.204 1130.98 309.228C1131.26 310.786 1131.14 311.895 1130.62 312.296C1129.09 313.5 1124.18 311.848 1116.09 307.339C1115.5 307.009 1115 306.726 1114.63 306.537C1112.36 305.357 1107.15 303.917 1100.56 302.099C1089.59 299.054 1066.77 292.752 1067.81 287.866C1068.21 285.954 1069.58 285.411 1071.96 284.632C1074.68 283.736 1078.43 282.508 1078.07 276.938C1077.72 271.155 1069.04 264.687 1061.51 259.707L1061.01 259.376C1057.76 257.205 1052.17 255.647 1046.27 254.018C1037.87 251.681 1028.33 249.038 1026.3 244.577C1025.34 242.476 1025.31 240.753 1026.21 239.337C1028.19 236.15 1034.61 234.616 1040.06 234.498C1040.27 234.498 1040.49 234.498 1040.7 234.498C1050.94 234.498 1059.36 239.832 1067.48 245.001C1072.41 248.141 1077.51 251.375 1082.94 253.381C1086.59 256.308 1092.26 259.636 1098.77 263.46C1114.06 272.453 1134.78 284.609 1139.09 298.37C1137.7 298.252 1136.26 298.039 1134.75 297.851C1130.77 297.331 1126.61 296.741 1122.79 297.52Z" fill="white"/>
<path d="M1101.58 608.833H1104.6C1104.69 607.416 1105 605.599 1105.16 604.513C1105.33 603.522 1105.47 602.625 1105.56 601.869C1105.66 601.869 1105.75 601.869 1105.85 601.893C1107.05 602.011 1108.28 603.026 1108.68 604.277C1109.15 605.693 1108.61 607.18 1107.1 608.573C1106.98 608.691 1106.89 608.762 1106.79 608.856H1110.76C1111.86 607.086 1112.17 605.174 1111.53 603.333C1110.73 600.949 1108.51 599.131 1106.13 598.895C1105.99 598.895 1105.85 598.872 1105.71 598.872L1105.75 597.786L1104.1 599.131C1102.97 599.509 1102 600.311 1101.32 601.515L1097.38 608.431L1102.1 604.631C1101.86 606.071 1101.62 607.534 1101.58 608.833Z" fill="white"/>
<path d="M544.982 608.832C545.029 593.561 545.808 578.124 547.507 562.592C557.748 468.601 596.989 382.848 661.006 314.562L670.657 313.24L677.736 338.756L687.694 325.703L697.321 334.39L704.141 355.491L732.055 356.058L716.151 370.976L711.55 425.949L735.878 454.888L749.446 491.521L794.209 539.956L758.436 472.945L761.575 473.299L779.626 503.252L806.455 530.633L813.18 569.603L873.21 599.603L897.349 602.341L903.272 608.88H907.354L898.812 599.462L874.319 596.794L815.894 567.596L809.287 529.216L782.151 501.576L763.415 470.49L753.104 469.357L780.593 520.837L752.207 490.246L738.639 453.66L714.688 425.029L719.101 372.439L739.559 353.226L706.382 352.565L699.964 332.737L687.293 321.313L679.034 332.124L672.875 309.936L659.543 311.777L659.166 312.178C594.488 381.007 554.846 467.516 544.51 562.333C542.811 577.982 542.009 593.513 541.962 608.903H544.982V608.832Z" fill="white"/>
<path d="M1194.05 252.13C1192.07 251.044 1190.2 249.746 1188.44 248.353C1181.29 243.633 1173.97 239.148 1166.51 234.875C1159.88 233.672 1151.39 233.719 1145.87 233.294C1136.95 232.633 1128.95 233.672 1120.41 234.616C1111.75 235.584 1097.52 231.5 1090.7 235.182C1095.3 240.234 1098.84 248.542 1106.53 248.377C1128.69 250.242 1144.57 264.758 1158.7 269.266C1176.47 274.931 1182.7 268.818 1182.06 289.046C1191.2 290.274 1205.83 299.999 1209.29 308.85C1200.56 313.075 1211.21 316.191 1214.93 318.622C1229.02 327.828 1236.81 343.902 1251.11 352.872C1255.31 355.515 1264.89 360.802 1270.03 356.412C1271.75 354.925 1270.79 350.228 1272.04 348.906C1277.96 342.58 1283.74 346.475 1292.31 345.838C1264.86 309.558 1231.71 277.835 1194.05 252.13Z" fill="white"/>
<path d="M1032.6 577.014C1026.8 574.017 1023.94 568.493 1018.02 565.897C1008.13 561.577 992.349 560.798 981.966 561.719C979.984 570.193 994.071 567.266 998.72 569.744L1013.96 573.45C1024.94 574.772 1031.59 587.589 1043.91 585.984C1041.69 579.705 1038.06 579.847 1032.6 577.014Z" fill="white"/>
<path d="M1076.3 608.832H1077.89C1079.47 606.283 1080.62 602.672 1082.56 601.35C1085.79 599.108 1091.1 601.232 1094.62 600.878C1093.65 596.204 1083.76 596.747 1079.58 595.591L1074.28 594.34C1070.22 593.938 1065.59 592.05 1063.3 596.346C1066.65 601.728 1074.18 602.294 1076.3 608.832Z" fill="white"/>
<path d="M1022.98 601.704C1026.09 604.324 1030.01 604.23 1031.4 600.524L1032.23 599.249C1028.69 598.942 1023.42 596.818 1022.98 601.704Z" fill="white"/>
<path d="M1189.59 385.067L1185.7 383.273C1182.35 394.273 1173.48 398.521 1180.01 409.875C1185.82 419.93 1199.76 420.331 1209.63 421.11C1197.43 410.323 1184.97 404.422 1189.59 385.067Z" fill="white"/>
<path d="M1141.08 300.022C1136.85 278.85 1096.31 262.327 1083.67 252.035C1069.16 246.772 1057.45 232.609 1039.99 232.987C1032.65 233.152 1020.66 235.938 1024.89 245.19C1028.71 253.57 1052.33 255.411 1060.14 260.604C1064.11 263.224 1076.16 270.989 1076.54 277.008C1077.04 285.105 1067.65 281.281 1066.3 287.536C1064.39 296.505 1106.77 304.153 1113.89 307.882C1117.6 309.794 1135.7 321.053 1132.13 307.67C1126.64 308.142 1122.93 304.932 1123.07 299.007C1128.69 297.874 1135.37 299.857 1141.08 300.022Z" fill="white"/>
<path d="M1015.66 206.858C997.587 204.875 979.512 202.774 961.414 200.909C950.064 199.753 940.531 202.75 929.558 204.379C934.75 217.361 961.319 214.387 973.259 222.129C982.037 227.818 991.216 235.89 998.083 243.703C990.933 251.469 975.76 244.27 967.384 242.145C954.972 239.006 941.663 235.229 928.709 235.395C920.969 235.489 914.291 239.03 907 239.643C893.597 240.729 877.245 231.783 864.503 236.15C864.29 244.341 876.513 249.439 892.276 252.626C899.26 251.233 906.009 251.257 914.055 254.231C916.132 255.01 918.138 255.694 920.096 256.355C939.422 257.984 956.954 257.936 959.479 257.936C958.393 261.642 956.718 263.342 952.541 263.176C953.202 271.178 967.313 275.333 973.566 280.03C973.235 280.36 972.952 280.738 972.669 281.115C982.532 280.101 992.089 276.938 1001.91 275.451C994.708 271.816 986.615 270.187 979.512 266.363C987.511 265.82 997.304 267.638 1004.76 264.451C1004.08 253.121 1024.91 241.225 1007.26 232.444C1024.82 224.348 1053.25 222.908 1072.62 223.664C1081.85 224.018 1091.83 228.361 1085.48 216.535C1066.04 206.976 1036.85 209.171 1015.66 206.858Z" fill="white"/>
<path d="M892.299 252.649C901.006 254.419 910.775 255.576 920.119 256.379C918.161 255.718 916.155 255.033 914.078 254.254C906.032 251.28 899.283 251.28 892.299 252.649Z" fill="white"/>
<path d="M1178.27 498.885H994.189V812.322H1178.27V498.885Z" fill="#EFF6FE"/>
<path d="M1092.89 565.165H1024.88V629.156H1092.89V565.165Z" fill="#D8E1FE"/>
<path d="M1139 565H1109V629H1139V565Z" fill="#D8E1FE"/>
<path d="M1092.89 653.609H1024.88V717.599H1092.89V653.609Z" fill="#D8E1FE"/>
<path d="M1139 654H1109V718H1139V654Z" fill="#D8E1FE"/>
<path d="M1097.63 745.122H1029.63V809.112H1097.63V745.122Z" fill="#D8E1FE"/>
<path d="M1140 747H1110V811H1140V747Z" fill="#D8E1FE"/>
<path d="M829.753 463.904H690.888V812.322H829.753V463.904Z" fill="#EFF6FE"/>
<path d="M1015 417H829V812H1015V417Z" fill="#EFF6FE"/>
<path d="M1312.36 416.909H1152.24V812.299H1312.36V416.909Z" fill="#EFF6FE"/>
<path d="M871.392 448.279H848.999V481.23H871.392V448.279Z" fill="#D8E1FE"/>
<path d="M904.097 448.279H881.704V481.23H904.097V448.279Z" fill="#D8E1FE"/>
<path d="M936.801 448.279H914.408V481.23H936.801V448.279Z" fill="#D8E1FE"/>
<path d="M969.483 448.279H947.09V481.23H969.483V448.279Z" fill="#D8E1FE"/>
<path d="M1002.19 448.279H979.795V481.23H1002.19V448.279Z" fill="#D8E1FE"/>
<path d="M871.392 653.302H848.999V686.253H871.392V653.302Z" fill="#D8E1FE"/>
<path d="M904.097 653.302H881.704V686.253H904.097V653.302Z" fill="#D8E1FE"/>
<path d="M936.801 653.302H914.408V686.253H936.801V653.302Z" fill="#D8E1FE"/>
<path d="M969.483 653.302H947.09V686.253H969.483V653.302Z" fill="#D8E1FE"/>
<path d="M1002.19 653.302H979.795V686.253H1002.19V653.302Z" fill="#D8E1FE"/>
<path d="M871.392 730.393H848.999V763.344H871.392V730.393Z" fill="#D8E1FE"/>
<path d="M904.097 730.393H881.704V763.344H904.097V730.393Z" fill="#D8E1FE"/>
<path d="M936.801 730.393H914.408V763.344H936.801V730.393Z" fill="#D8E1FE"/>
<path d="M969.483 730.393H947.09V763.344H969.483V730.393Z" fill="#D8E1FE"/>
<path d="M1002.19 730.393H979.795V763.344H1002.19V730.393Z" fill="#D8E1FE"/>
<path d="M871.31 775.972H848.917V812.322H871.31V775.972Z" fill="#D8E1FE"/>
<path d="M904.015 775.972H881.622V812.322H904.015V775.972Z" fill="#D8E1FE"/>
<path d="M936.719 775.972H914.326V812.322H936.719V775.972Z" fill="#D8E1FE"/>
<path d="M969.401 775.972H947.008V812.322H969.401V775.972Z" fill="#D8E1FE"/>
<path d="M1002.11 775.972H979.713V812.322H1002.11V775.972Z" fill="#D8E1FE"/>
<path d="M871.392 490.341H848.999V550.625H871.392V490.341Z" fill="#D8E1FE"/>
<path d="M904.097 490.341H881.704V550.625H904.097V490.341Z" fill="#D8E1FE"/>
<path d="M936.801 490.341H914.408V550.625H936.801V490.341Z" fill="#D8E1FE"/>
<path d="M969.483 490.341H947.09V550.625H969.483V490.341Z" fill="#D8E1FE"/>
<path d="M1002.19 490.341H979.795V550.625H1002.19V490.341Z" fill="#D8E1FE"/>
<path d="M871.392 563.961H848.999V624.246H871.392V563.961Z" fill="#D8E1FE"/>
<path d="M904.097 563.961H881.704V624.246H904.097V563.961Z" fill="#D8E1FE"/>
<path d="M936.801 563.961H914.408V624.246H936.801V563.961Z" fill="#D8E1FE"/>
<path d="M969.483 563.961H947.09V624.246H969.483V563.961Z" fill="#D8E1FE"/>
<path d="M1002.19 563.961H979.795V624.246H1002.19V563.961Z" fill="#D8E1FE"/>
<path d="M1139 522H1025V538H1139V522Z" fill="#D8E1FE"/>
<path d="M1702.25 497.304H1566.43V757.348H1702.25V497.304Z" fill="#C2E1F5"/>
<path d="M1311.84 258.951H1185.32V757.372H1311.84V258.951Z" fill="#EFF6FE"/>
<path d="M1302.38 288.858H1194.81V319H1302.38V288.858Z" fill="#D8E1FE"/>
<path d="M1302.38 340.975H1194.81V371.117H1302.38V340.975Z" fill="#D8E1FE"/>
<path d="M1302.38 393.116H1194.81V423.258H1302.38V393.116Z" fill="#D8E1FE"/>
<path d="M1302.38 445.257H1194.81V475.399H1302.38V445.257Z" fill="#D8E1FE"/>
<path d="M1302.38 497.398H1194.81V527.541H1302.38V497.398Z" fill="#D8E1FE"/>
<path d="M1302.38 549.539H1194.81V579.682H1302.38V549.539Z" fill="#D8E1FE"/>
<path d="M1302.38 601.68H1194.81V631.823H1302.38V601.68Z" fill="#D8E1FE"/>
<path d="M1302.38 653.798H1194.81V683.94H1302.38V653.798Z" fill="#D8E1FE"/>
<path d="M1302.38 705.939H1194.81V736.081H1302.38V705.939Z" fill="#D8E1FE"/>
<path d="M823.943 481.279H710.043V803.473H823.943V481.279Z" fill="#EFF6FE"/>
<path d="M724.531 489.8H719.01V811.71H724.531V489.8Z" fill="#D8E1FE"/>
<path d="M734.773 489.8H729.251V811.71H734.773V489.8Z" fill="#D8E1FE"/>
<path d="M745.014 489.8H739.492V811.71H745.014V489.8Z" fill="#D8E1FE"/>
<path d="M755.254 489.8H749.732V811.71H755.254V489.8Z" fill="#D8E1FE"/>
<path d="M765.495 489.8H759.974V811.71H765.495V489.8Z" fill="#D8E1FE"/>
<path d="M775.735 489.8H770.214V811.71H775.735V489.8Z" fill="#D8E1FE"/>
<path d="M785.977 489.8H780.455V811.71H785.977V489.8Z" fill="#D8E1FE"/>
<path d="M796.241 489.8H790.72V811.71H796.241V489.8Z" fill="#D8E1FE"/>
<path d="M806.483 489.8H800.961V811.71H806.483V489.8Z" fill="#D8E1FE"/>
<path d="M816.723 489.8H811.201V811.71H816.723V489.8Z" fill="#D8E1FE"/>
<path d="M1446.63 44.984C1442.4 38.5638 1442.66 32.1907 1442.55 31.2229C1441.46 22.7019 1447.64 18.5004 1448.42 11.1596C1450.1 15.8096 1448.59 17.1786 1450.26 21.8286C1451.61 18.9489 1454.96 15.5263 1452.74 4.73933C1451.82 0.278189 1459.75 17.2966 1460.01 20.4359C1460.55 26.8798 1465.22 15.4083 1465.22 15.4083C1465.22 15.4083 1466.07 28.296 1465.1 35.2592C1464.18 42.246 1452.88 54.52 1446.63 44.984Z" fill="#D8E1FE"/>
<mask id="path-83-inside-1" fill="white">
<path d="M1735.9 370.663L1734.7 370.049L1733.92 371.159C1729.67 377.178 1722.57 387.209 1715.46 397.147C1709.42 391.033 1691.4 372.551 1686.3 364.904C1682.81 359.664 1682.43 351.119 1682.05 342.881C1681.79 337.098 1681.56 331.646 1680.21 327.633C1677.64 319.914 1671.03 319.183 1666.97 320.009C1666.24 318.663 1664.92 316.327 1663.39 314.202C1659.97 298.883 1657.7 283.942 1655.36 268.245C1654.49 262.297 1653.59 256.302 1652.63 250.236C1652.63 250.236 1652.86 237.608 1652.74 230.338C1652.91 230.385 1653.07 230.432 1653.26 230.432H1653.31C1653.69 230.408 1696.11 228.591 1696.16 227.765C1696.21 227.104 1652.46 220.188 1652.2 220.872C1652.15 220.518 1652.13 220.164 1652.08 219.834C1651.92 218.677 1651.71 217.568 1651.47 216.458C1651.47 216.458 1689.89 202.981 1689.7 202.202C1689.51 201.399 1648.95 208.15 1648.99 208.952C1647.91 206.663 1646.52 204.562 1644.79 202.674C1652.84 193.161 1673.2 169.628 1672.49 169.628C1671.41 169.628 1643.73 188.983 1634.03 194.979C1633.77 195.144 1633.58 195.38 1633.47 195.663C1629.88 194.436 1625.68 193.633 1620.7 193.327C1620.7 193.279 1620.72 193.232 1620.72 193.185C1620.72 190.022 1616.88 144.561 1616.08 144.537C1615.18 144.561 1608.19 192.973 1608.19 192.973C1608.17 193.209 1608.19 193.445 1608.27 193.657C1604.75 194.082 1601.54 194.79 1598.66 195.781C1598.57 195.545 1598.45 195.333 1598.26 195.168C1598.26 195.168 1565.37 166.395 1564.78 166.937C1564.19 167.48 1588.09 200.809 1588.09 200.809C1588.23 200.998 1588.4 201.116 1588.59 201.21C1587.36 202.225 1584.1 206.144 1583.09 207.324C1582.29 207.135 1554.84 207.324 1554.84 207.324C1554.39 199.959 1552.98 187.591 1551.7 177.323C1549.93 163.232 1517.32 115.622 1515.25 101.578L1486.46 105.426L1517.21 171.257C1517.21 191.934 1518.62 225.499 1518.76 229.087C1517.28 233.241 1503.1 273.391 1503.1 282.667C1503.1 291.448 1510.48 299.969 1512.49 302.094C1512.39 303.769 1511.92 308.585 1509.54 313.329C1506.38 319.678 1521.9 343.094 1527.8 351.615C1526.6 353.243 1524.29 356.925 1522 363.747C1519.87 370.144 1524.9 376.068 1529.33 381.308C1531.86 384.282 1534.48 387.351 1534.48 389.357C1534.48 395.187 1539.5 413.339 1540.61 417.304C1537.1 422.19 1515.67 452.569 1515.67 464.677C1515.67 476.786 1535.28 480.822 1540.78 481.719V501.688C1536.6 505.937 1515.77 528.172 1525.56 537.968C1534.29 546.701 1540.78 605.333 1540.78 615.318C1540.78 621.667 1540.78 621.667 1537.33 624.736C1536.01 625.916 1534.22 627.521 1531.84 629.905C1525.3 636.443 1530.47 643.147 1534.24 648.009C1536.51 650.936 1538.66 653.721 1537.81 655.397C1536.93 657.167 1535.35 658.041 1533.54 659.056C1529.78 661.156 1525.09 663.8 1525.09 674.918V682.801H1525.75C1526.43 689.104 1527.21 701.779 1525.11 718.656C1522.02 743.393 1506.47 808.846 1506.33 809.507L1505.88 811.419C1505.88 811.419 1521.88 812.623 1521.6 813.119L1714.9 814.582L1716.62 814.606L1710.27 732.015L1719.66 722.621L1716.55 641.518L1726.08 638.331L1711.78 539.337C1723.6 533.058 1734.6 519.981 1738.07 506.881C1741.14 495.339 1740 484.174 1738.75 480.067L1743.73 472.703L1743.61 473.246C1744.09 473.34 1750.27 467.533 1754.99 464.394C1769.76 454.528 1778.18 446.054 1780.71 438.477C1783.56 429.885 1780.4 422.592 1779.2 420.349L1783.92 413.362V397.902L1784.01 397.477C1784.27 395.99 1784.51 394.975 1735.9 370.663ZM1561.05 222.666C1558.24 218.276 1555.53 215.278 1554.63 214.358C1554.58 213.248 1554.54 211.997 1554.49 210.652L1579.9 213.602C1579.62 214.783 1580.04 221.769 1579.9 223.02C1579.69 222.973 1561.17 222.666 1561.17 222.666C1561.12 222.643 1561.1 222.666 1561.05 222.666ZM1578.82 265.342C1575.35 262.911 1572.14 261.613 1570.46 261.07C1570.39 257.647 1569.92 247.285 1567.3 236.758C1566.64 234.091 1565.7 231.612 1564.64 229.299H1578.32C1578.42 229.299 1578.51 229.252 1578.6 229.252C1579.24 235.436 1580.78 243.249 1581.27 245.751C1579.95 251.652 1578.37 260.031 1578.82 265.342ZM1780.68 412.395L1716.15 507.707L1705.93 499.588L1704.42 489.131L1714.83 496.023C1714.83 496.023 1771.55 412.772 1780.71 401.065V412.395H1780.68Z"/>
</mask>
<path d="M1735.9 370.663L1734.7 370.049L1733.92 371.159C1729.67 377.178 1722.57 387.209 1715.46 397.147C1709.42 391.033 1691.4 372.551 1686.3 364.904C1682.81 359.664 1682.43 351.119 1682.05 342.881C1681.79 337.098 1681.56 331.646 1680.21 327.633C1677.64 319.914 1671.03 319.183 1666.97 320.009C1666.24 318.663 1664.92 316.327 1663.39 314.202C1659.97 298.883 1657.7 283.942 1655.36 268.245C1654.49 262.297 1653.59 256.302 1652.63 250.236C1652.63 250.236 1652.86 237.608 1652.74 230.338C1652.91 230.385 1653.07 230.432 1653.26 230.432H1653.31C1653.69 230.408 1696.11 228.591 1696.16 227.765C1696.21 227.104 1652.46 220.188 1652.2 220.872C1652.15 220.518 1652.13 220.164 1652.08 219.834C1651.92 218.677 1651.71 217.568 1651.47 216.458C1651.47 216.458 1689.89 202.981 1689.7 202.202C1689.51 201.399 1648.95 208.15 1648.99 208.952C1647.91 206.663 1646.52 204.562 1644.79 202.674C1652.84 193.161 1673.2 169.628 1672.49 169.628C1671.41 169.628 1643.73 188.983 1634.03 194.979C1633.77 195.144 1633.58 195.38 1633.47 195.663C1629.88 194.436 1625.68 193.633 1620.7 193.327C1620.7 193.279 1620.72 193.232 1620.72 193.185C1620.72 190.022 1616.88 144.561 1616.08 144.537C1615.18 144.561 1608.19 192.973 1608.19 192.973C1608.17 193.209 1608.19 193.445 1608.27 193.657C1604.75 194.082 1601.54 194.79 1598.66 195.781C1598.57 195.545 1598.45 195.333 1598.26 195.168C1598.26 195.168 1565.37 166.395 1564.78 166.937C1564.19 167.48 1588.09 200.809 1588.09 200.809C1588.23 200.998 1588.4 201.116 1588.59 201.21C1587.36 202.225 1584.1 206.144 1583.09 207.324C1582.29 207.135 1554.84 207.324 1554.84 207.324C1554.39 199.959 1552.98 187.591 1551.7 177.323C1549.93 163.232 1517.32 115.622 1515.25 101.578L1486.46 105.426L1517.21 171.257C1517.21 191.934 1518.62 225.499 1518.76 229.087C1517.28 233.241 1503.1 273.391 1503.1 282.667C1503.1 291.448 1510.48 299.969 1512.49 302.094C1512.39 303.769 1511.92 308.585 1509.54 313.329C1506.38 319.678 1521.9 343.094 1527.8 351.615C1526.6 353.243 1524.29 356.925 1522 363.747C1519.87 370.144 1524.9 376.068 1529.33 381.308C1531.86 384.282 1534.48 387.351 1534.48 389.357C1534.48 395.187 1539.5 413.339 1540.61 417.304C1537.1 422.19 1515.67 452.569 1515.67 464.677C1515.67 476.786 1535.28 480.822 1540.78 481.719V501.688C1536.6 505.937 1515.77 528.172 1525.56 537.968C1534.29 546.701 1540.78 605.333 1540.78 615.318C1540.78 621.667 1540.78 621.667 1537.33 624.736C1536.01 625.916 1534.22 627.521 1531.84 629.905C1525.3 636.443 1530.47 643.147 1534.24 648.009C1536.51 650.936 1538.66 653.721 1537.81 655.397C1536.93 657.167 1535.35 658.041 1533.54 659.056C1529.78 661.156 1525.09 663.8 1525.09 674.918V682.801H1525.75C1526.43 689.104 1527.21 701.779 1525.11 718.656C1522.02 743.393 1506.47 808.846 1506.33 809.507L1505.88 811.419C1505.88 811.419 1521.88 812.623 1521.6 813.119L1714.9 814.582L1716.62 814.606L1710.27 732.015L1719.66 722.621L1716.55 641.518L1726.08 638.331L1711.78 539.337C1723.6 533.058 1734.6 519.981 1738.07 506.881C1741.14 495.339 1740 484.174 1738.75 480.067L1743.73 472.703L1743.61 473.246C1744.09 473.34 1750.27 467.533 1754.99 464.394C1769.76 454.528 1778.18 446.054 1780.71 438.477C1783.56 429.885 1780.4 422.592 1779.2 420.349L1783.92 413.362V397.902L1784.01 397.477C1784.27 395.99 1784.51 394.975 1735.9 370.663ZM1561.05 222.666C1558.24 218.276 1555.53 215.278 1554.63 214.358C1554.58 213.248 1554.54 211.997 1554.49 210.652L1579.9 213.602C1579.62 214.783 1580.04 221.769 1579.9 223.02C1579.69 222.973 1561.17 222.666 1561.17 222.666C1561.12 222.643 1561.1 222.666 1561.05 222.666ZM1578.82 265.342C1575.35 262.911 1572.14 261.613 1570.46 261.07C1570.39 257.647 1569.92 247.285 1567.3 236.758C1566.64 234.091 1565.7 231.612 1564.64 229.299H1578.32C1578.42 229.299 1578.51 229.252 1578.6 229.252C1579.24 235.436 1580.78 243.249 1581.27 245.751C1579.95 251.652 1578.37 260.031 1578.82 265.342ZM1780.68 412.395L1716.15 507.707L1705.93 499.588L1704.42 489.131L1714.83 496.023C1714.83 496.023 1771.55 412.772 1780.71 401.065V412.395H1780.68Z" fill="#EFF6FE" stroke="white" stroke-width="2" mask="url(#path-83-inside-1)"/>
<path d="M1562.11 319.309C1562.2 318.955 1562.32 318.672 1562.44 318.436C1558.33 325.399 1554.98 332.999 1550.64 339.75C1549.25 341.945 1545.73 343.975 1544.72 346.005C1546.75 341.874 1547.79 337.272 1547.74 332.692C1543.75 336.776 1540.64 341.992 1537.64 346.831C1535.68 349.971 1533.75 353.11 1531.74 356.202C1530.77 357.689 1526.55 362.103 1526.57 363.755C1526.64 367.579 1525.91 367.791 1526.57 371.497C1528.06 379.9 1535.47 382.426 1539.13 390.333C1540 392.222 1540.21 402.442 1541.46 404.118C1542.55 402.489 1544.18 401.049 1544.67 399.232C1549.06 383.37 1553.36 367.485 1557.67 351.599C1559.33 345.486 1559.87 339.207 1560.27 332.928C1560.41 330.615 1560.76 328.821 1561.28 326.532C1561.66 324.856 1561.57 321.292 1562.11 319.309Z" fill="#D8E1FE"/>
<path d="M1546.63 589.432C1545.92 602.414 1553.31 616.671 1540.59 627.812C1540.54 627.836 1540.9 627.718 1540.83 627.765C1537.95 604.633 1534.83 581.478 1532.57 558.252C1532.03 552.752 1534.48 546.992 1535.35 541.328C1535.68 539.109 1536.44 535.615 1535.35 534.695C1529.29 529.714 1529.45 529.95 1534.29 523.082C1543.68 509.722 1552.58 496.032 1561.76 482.554C1562.82 480.996 1564.35 479.792 1565.67 478.423C1565.67 480.311 1566.22 482.412 1565.6 484.064C1562.3 492.939 1558.55 501.626 1555.41 510.548C1554.8 512.271 1556.21 514.726 1556.71 516.827C1558.03 515.434 1559.77 514.277 1560.6 512.649C1570.2 493.482 1579.6 474.222 1589.25 455.102C1590.47 452.695 1592.98 450.948 1594.89 448.895C1594.63 451.68 1594.96 454.701 1593.99 457.227C1579.17 495.158 1564 532.972 1549.44 570.998C1547.27 576.686 1547.72 583.366 1546.94 589.574L1546.63 589.432ZM1552.29 531.91C1552.04 531.201 1551.78 530.493 1551.52 529.762C1551 530.423 1550.17 531.036 1550.01 531.792C1549.86 532.452 1550.45 533.279 1550.71 534.01C1551.26 533.326 1551.8 532.618 1552.29 531.91Z" fill="#D8E1FE"/>
<path d="M1567.35 261.668C1567.35 261.668 1539.1 302.456 1529.71 311.874C1520.3 321.292 1526.57 315.013 1526.57 315.013C1526.57 315.013 1548.54 293.038 1557.96 283.62C1567.37 274.202 1573.65 266.365 1573.65 266.365C1573.65 266.365 1570.49 261.668 1567.35 261.668Z" fill="#D8E1FE"/>
<path d="M1523.44 242.832L1526.57 283.62C1526.57 283.62 1517.16 293.038 1514.02 280.481C1510.88 267.947 1523.44 242.832 1523.44 242.832Z" fill="#D8E1FE"/>
<path d="M1783.68 396.73L1714.8 493.884V512.719L1783.82 412.521V396.612C1783.78 396.659 1783.73 396.683 1783.68 396.73Z" fill="#D8E1FE"/>
<path d="M1695.48 429.61C1695.12 426.636 1694.27 423.497 1694.01 421.42C1693.19 415.141 1692.36 408.886 1691.51 402.607C1693.28 409.877 1695.05 417.171 1696.82 424.441C1699.49 419.791 1702.84 416.227 1706.03 411.931C1709.12 407.753 1716.05 401.356 1717.4 396.376C1714 411.081 1701.73 421.939 1694.96 435.417C1695.71 433.906 1695.74 431.805 1695.48 429.61Z" fill="#D8E1FE"/>
<path d="M1637.27 283.667C1640.47 279.017 1642.39 273.187 1643.97 267.333C1641.3 277.176 1632.64 288.175 1621.97 289.946C1618.18 290.583 1614.24 289.922 1610.93 287.939C1615.25 290.559 1618.15 293.557 1623.98 292.755C1629.48 291.976 1634.22 288.081 1637.27 283.667Z" fill="#D8E1FE"/>
<path d="M1635.47 305.855L1635.31 306.091C1635.33 306.468 1635.38 306.87 1635.4 307.247C1636.42 307.554 1637.41 307.837 1638.42 308.121C1638.45 308.026 1638.49 307.932 1638.52 307.814C1639.81 307.672 1641.49 307.295 1643.71 307.578C1641.91 306.728 1640.14 305.855 1638.35 305.005C1637.67 297.263 1636.89 289.049 1637.93 281.425C1636.93 283.384 1636.23 285.39 1635.76 287.467C1634.53 292.707 1634.5 298.538 1635.12 303.872C1635.19 304.675 1635.33 305.335 1635.47 305.855Z" fill="#D8E1FE"/>
<path d="M1601.63 301.134C1601.42 300.945 1601.26 300.78 1601.09 300.615C1597.41 296.767 1601.52 292.542 1600.69 287.75C1599.44 280.575 1595.62 273.022 1592.17 266.672C1597.32 273.399 1602.48 280.433 1604.49 288.647C1605.43 292.518 1605.67 296.578 1606.94 300.355C1608.22 304.132 1610.88 307.79 1614.75 308.758C1611.83 308.05 1604.47 303.659 1601.63 301.134Z" fill="#D8E1FE"/>
<path d="M1521.67 465.913C1520.49 449.201 1542.55 425.881 1560.62 422.435C1565.63 421.49 1571.01 419.295 1574.85 416.062C1592.74 401.049 1610.11 385.424 1627.76 370.105C1629.41 368.688 1631.65 367.957 1633.63 366.895C1632.76 369.042 1632.48 371.828 1630.92 373.268C1616.9 386.344 1603.26 399.916 1588.35 411.884C1568.86 427.509 1558.05 448.186 1549.68 470.823C1548.31 474.528 1545.69 477.786 1543.63 481.256C1536.11 476.039 1520.25 481.94 1521.67 465.913Z" fill="#D8E1FE"/>
<path d="M1544.22 415.66C1544.13 415.755 1544.03 415.849 1543.92 415.943C1560.93 394.96 1580.35 375.699 1599.44 356.556C1607.63 348.342 1616 340.34 1624.69 332.645C1631.58 326.532 1641.65 314.659 1650.93 312.535C1654.44 311.732 1657.98 313.55 1661.03 315.509C1649.49 316.925 1640.38 323.723 1631.13 330.238C1620.37 337.838 1610.77 348.224 1601.54 357.571C1591.82 367.414 1582.95 378.012 1573.46 388.067C1564.3 397.721 1553.95 406.525 1544.22 415.66Z" fill="#D8E1FE"/>
<path d="M1671.74 451.987C1659.07 462.797 1651.28 478.989 1650.83 495.654C1650.71 500.445 1651.16 505.261 1651.61 509.911C1652.2 516.048 1652.79 522.397 1652.01 528.511C1651.35 533.727 1649.61 539.274 1646.66 545.458C1645.22 548.479 1643.38 550.793 1641.44 553.247C1640.24 554.758 1639.01 556.316 1637.83 558.086C1630.52 569.109 1624.55 581.36 1618.79 593.209L1618.58 593.634C1608.97 613.414 1600.71 634.02 1594.04 654.933L1591.89 661.66C1589.25 669.992 1586.51 678.584 1583.61 686.916C1580.59 695.626 1576.15 704.006 1571.88 712.102C1569.09 717.389 1566.22 722.842 1563.71 728.389C1556.99 743.33 1551.42 758.908 1547.13 774.676C1546.96 775.29 1547.17 775.903 1547.62 776.281C1552.25 765.281 1555.31 753.503 1560.69 742.693C1561.33 741.394 1562.02 740.12 1562.68 738.821C1563.93 735.753 1565.2 732.708 1566.57 729.71C1569.02 724.258 1571.88 718.853 1574.64 713.613C1578.96 705.398 1583.44 696.924 1586.56 687.979C1589.46 679.623 1592.2 670.984 1594.86 662.628L1597.01 655.901C1603.64 635.153 1611.83 614.665 1621.36 595.026L1621.57 594.601C1627.28 582.847 1633.18 570.691 1640.4 559.833C1641.49 558.181 1642.69 556.67 1643.85 555.207C1645.83 552.728 1647.86 550.155 1649.44 546.827C1652.51 540.336 1654.37 534.482 1655.08 528.935C1655.91 522.468 1655.29 515.953 1654.68 509.651C1654.25 505.072 1653.78 500.351 1653.92 495.772C1654.21 485.315 1657.56 475.048 1663.24 466.338C1665.2 461.286 1667.92 456.519 1671.74 451.987Z" fill="#D8E1FE"/>
<path d="M1646.82 576.497C1646.7 567.103 1646.49 557.709 1646.18 548.243C1643.61 559.975 1644.96 571.729 1644.67 583.649C1644.44 594.224 1644.25 604.798 1644.16 615.397C1643.99 636.074 1643.8 656.963 1645.5 677.569C1645.57 678.419 1646.16 679.056 1646.87 679.056C1646.92 679.056 1646.96 679.056 1647.01 679.056C1647.77 678.962 1648.33 678.159 1648.26 677.262C1646.61 657.128 1646.77 636.711 1646.92 616.506C1647.01 603.099 1647.01 589.81 1646.82 576.497Z" fill="#D8E1FE"/>
<path d="M1710.08 641.385C1710.39 637.679 1710.72 633.973 1711.08 630.291L1701.61 481.256C1700.36 474.292 1699.58 467.258 1698.85 460.201C1698.38 455.834 1697.15 451.255 1696.28 446.699L1707.8 628.119C1708.24 632.392 1708.64 636.64 1709 640.913C1709.26 641.196 1709.64 641.385 1710.08 641.385Z" fill="#D8E1FE"/>
<path d="M1655.62 699.002C1648.1 693.313 1644.04 687.153 1644.18 681.629C1644.27 677.947 1646.3 674.643 1650.01 672.093C1650.22 671.668 1650.53 671.244 1651.02 670.937C1657.86 666.452 1665.2 663.171 1672.68 660.221C1672.92 659.937 1673.23 659.654 1673.63 659.465C1688.59 651.77 1703.93 644.949 1719.36 638.292C1719.22 638.316 1719.05 638.316 1718.91 638.363C1716.46 639.331 1658.34 662.345 1648.26 669.166C1643.52 672.377 1640.95 676.649 1640.83 681.535C1640.66 688.191 1645.22 695.367 1653.64 701.716C1656.54 703.911 1656.71 704.738 1656.73 704.738C1656.26 705.705 1651.4 707.098 1647.11 708.349C1636.39 711.441 1618.46 716.587 1598.02 730.442C1565.6 752.418 1538.77 784.165 1523.41 804.582C1526.39 801.443 1529.36 798.445 1532.05 795.589C1537.19 790.113 1542.6 784.897 1548.07 779.822C1562.32 763.889 1580.04 746.729 1599.86 733.298C1619.87 719.75 1637.48 714.675 1648 711.653C1655.62 709.458 1659.47 708.349 1659.99 705.422C1660.46 703.014 1658.17 700.914 1655.62 699.002Z" fill="#D8E1FE"/>
<path d="M1532.61 266.389C1543.09 249.394 1553.21 226.758 1553.21 223.831L1552.2 214.767C1553.4 216.301 1554.77 218.261 1556.14 220.527C1554.28 226.121 1548.97 241.558 1543.99 251.542C1542.03 255.484 1537.48 261.055 1532.61 266.389Z" fill="#D8E1FE"/>
<path d="M1701.85 485.268L1714.8 493.884V512.72L1702.25 503.302L1701.85 485.268Z" fill="#D8E1FE"/>
<path d="M1659.38 702.589L1649.82 669.638C1649.82 669.638 1636.25 675.988 1640.26 686.444L1659.38 702.589Z" fill="#D8E1FE"/>
<path d="M1714.69 814.039C1713.6 794.896 1705.39 649.59 1705.39 646.664L1709.57 814.039H1714.69V814.039Z" fill="#D8E1FE"/>
<path d="M1765.28 412.285C1758.5 413.63 1751.52 419.744 1747.58 428.69C1744.68 435.251 1744.02 442.002 1745.29 447.478C1745.72 447.596 1746.14 447.738 1746.54 447.856C1753.29 448.186 1760.37 452.128 1762.54 458.147C1768.67 456.141 1774.74 450.358 1778.33 442.262C1781.37 435.346 1781.96 428.194 1780.43 422.6C1776.67 417.785 1771.74 414.102 1765.28 412.285Z" fill="#D6DFFF"/>
<path d="M1455.74 90.6576H1448.78C1437.26 90.6576 1427.3 82.6559 1424.8 71.4204L1419.85 49.1855H1484.62L1479.66 71.4204C1477.19 82.6559 1467.23 90.6576 1455.74 90.6576Z" fill="#EFF6FE"/>
<path d="M1479.73 82.0186C1473.67 82.0186 1470.04 80.8148 1468.6 78.36C1467.58 76.6369 1467.96 74.7722 1468.6 73.6864L1472.33 75.8816C1472.33 75.858 1472.25 76.0468 1472.35 76.1884C1472.4 76.2592 1473.48 77.8171 1480.54 77.6755C1486.13 77.5811 1488.96 74.6778 1490.33 72.2938C1492.57 68.3519 1492.41 63.3007 1490.94 60.7043C1490.66 60.2086 1490.28 59.9253 1489.67 59.7837C1486.7 59.052 1480.75 62.0497 1477.68 64.0796L1475.27 60.4682C1476.24 59.8309 1484.9 54.1896 1490.66 55.5586C1492.43 55.9835 1493.82 57.022 1494.69 58.5563C1497.13 62.8758 1496.87 69.5557 1494.08 74.4417C1491.34 79.2097 1486.58 81.9006 1480.61 82.0186C1480.32 82.0186 1480.02 82.0186 1479.73 82.0186Z" fill="#D8E1FE"/>
<path d="M1507.65 113.907C1503.66 116.103 1500.55 118.133 1496.63 117.495C1486.81 115.914 1477.3 106.118 1475.89 102.696C1473.91 97.8804 1473.84 81.4757 1476.43 78.36C1479.1 75.1971 1486.58 69.3433 1488.91 69.9098C1489.81 70.1222 1493.47 72.9783 1494.08 74.1821C1494.1 74.2293 1494.13 74.2765 1494.15 74.3001C1494.95 75.4803 1498.66 76.8729 1503.17 77.3686C1503.92 77.463 1504.7 77.4158 1505.5 77.3214C1507.6 77.109 1510.06 77.0854 1512.42 78.478C1513.74 79.2569 1514.89 82.7975 1514.94 86.0076C1515.41 92.2155 1515.11 100.642 1514.49 105.056C1514.14 107.888 1512.63 111.193 1507.65 113.907Z" fill="#EFF6FE"/>
<path d="M1494.08 74.1585C1493.23 72.7659 1490.56 70.1695 1487.92 70.0986C1486.32 70.0514 1478.39 74.4182 1475.84 79.3986C1472.73 85.512 1481.22 97.1723 1482.31 102.979C1482.8 105.693 1487.99 101.799 1487.99 101.799C1489.74 104.914 1493.56 106.826 1494.15 105.953C1494.77 105.08 1495.26 101.114 1494.27 99.2967C1495.76 99.0135 1497.38 98.0457 1495.21 93.1597C1495.8 93.3957 1492.92 90.7285 1492.71 88.2737C1492.57 86.6686 1495.21 85.7244 1495.05 83.7653C1494.69 79.4458 1494.6 74.9847 1494.08 74.1585Z" fill="#EFF6FE"/>
<path d="M1493.23 88.2265C1493.8 88.0376 1494.29 87.7072 1494.69 87.2587C1495.73 86.0785 1495.95 84.2138 1495.24 82.4199C1494.84 81.4049 1491.3 76.5897 1489.53 76.4245C1486.88 76.1884 1478.08 79.7762 1475.72 83.5529C1475.37 84.0958 1475.53 84.8275 1476.1 85.1816C1476.64 85.5356 1477.37 85.3704 1477.73 84.8039C1479.55 81.9006 1487.29 78.7613 1489.22 78.7849C1490.09 79.2806 1492.74 82.4671 1493.07 83.2932C1493.44 84.2374 1493.4 85.2052 1492.95 85.7008C1492.55 86.1493 1491.86 86.1021 1491.37 85.9841C1490.73 85.8189 1490.09 86.1965 1489.93 86.8338C1489.76 87.4711 1490.14 88.1084 1490.78 88.2737C1491.65 88.5097 1492.5 88.4861 1493.23 88.2265Z" fill="#D8E1FE"/>
<path d="M1494.32 107.18C1494.93 106.968 1495.8 106.378 1496.11 104.608C1496.68 101.515 1495.33 96.1574 1491.3 94.151C1485.33 91.1769 1476.36 97.0071 1475.98 97.2667C1475.44 97.6208 1475.3 98.3525 1475.65 98.8954C1476.01 99.4383 1476.74 99.5799 1477.28 99.2259C1477.35 99.1787 1485.47 93.8914 1490.23 96.2518C1492.43 97.3376 1493.51 99.934 1493.8 102.011C1494.01 103.687 1493.7 104.773 1493.49 104.962C1492.08 105.056 1489.55 103.144 1489.13 101.492L1488.61 99.4619L1487.14 100.973C1487.07 101.043 1486.98 101.161 1486.86 101.279C1486.22 102.011 1485.02 103.333 1482.26 103.781C1481.62 103.876 1481.17 104.49 1481.27 105.127C1481.36 105.764 1481.98 106.213 1482.61 106.118C1485.11 105.717 1486.7 104.702 1487.66 103.852C1489.06 105.882 1491.72 107.487 1493.85 107.298C1493.99 107.251 1494.13 107.228 1494.32 107.18Z" fill="#D8E1FE"/>
<path d="M1495.57 100.146C1496.68 99.7688 1497.38 98.8482 1497.5 97.5972C1497.88 93.9386 1493.4 86.9047 1490.94 85.6536C1487.88 84.0722 1482.45 85.5828 1475.63 89.926C1475.09 90.28 1474.92 91.0117 1475.27 91.5546C1475.63 92.0975 1476.36 92.2627 1476.9 91.9087C1483.86 87.4711 1488.16 86.8574 1489.86 87.7308C1491.6 88.6277 1495.43 94.7411 1495.14 97.3376C1495.1 97.8333 1494.91 97.8805 1494.77 97.9277C1494.15 98.0693 1493.77 98.7538 1493.94 99.3675C1494.1 100.005 1494.77 100.359 1495.38 100.194C1495.47 100.194 1495.52 100.17 1495.57 100.146Z" fill="#D8E1FE"/>
<path d="M1501.92 100.666C1501.92 100.666 1498.85 97.6448 1496.94 94.057C1495.9 92.1214 1495.03 89.1237 1497.27 84.5446C1499.51 79.9654 1504.61 78.1007 1504.61 78.1007C1504.61 78.1007 1497.88 76.3776 1496.37 72.7898C1494.86 69.202 1496.3 66.1807 1497.76 65.0713C1497.95 64.9297 1498.28 64.7409 1498.71 64.5284C1499.15 65.8739 1502.34 68.2107 1506.56 69.9101C1507.27 70.1934 1513.08 80.2723 1513.86 80.4139L1501.92 100.666Z" fill="#EFF6FE"/>
<path d="M1496.63 95.0244C1496.72 95.0244 1496.82 95.0008 1496.91 94.9772C1497.53 94.7883 1497.88 94.1274 1497.69 93.5137L1497.5 92.9236C1496.89 90.9881 1496.11 88.6041 1497.95 84.8511C1499.96 80.744 1504.58 79.0209 1504.63 78.9973C1505.12 78.8085 1505.43 78.3364 1505.41 77.8407C1505.38 77.3214 1505.03 76.873 1504.51 76.7549C1502.79 76.3065 1498.12 74.6306 1497.08 72.1286C1495.78 69.0364 1497.15 66.6761 1498.16 65.7555C1498.64 65.307 1498.68 64.5753 1498.26 64.0796C1497.83 63.5839 1497.08 63.5603 1496.58 63.9852C1495.12 65.307 1493.09 68.7296 1494.88 73.0255C1495.95 75.5275 1498.92 77.1798 1501.18 78.1004C1499.41 79.2097 1497.17 81.0508 1495.8 83.8125C1493.54 88.4153 1494.55 91.5546 1495.24 93.6317L1495.4 94.1982C1495.61 94.7175 1496.11 95.048 1496.63 95.0244Z" fill="#D8E1FE"/>
<path d="M1419.87 49.1855C1419.87 49.1855 1449.79 39.7676 1484.64 49.1855C1456.82 54.4256 1421.92 49.2091 1419.87 49.1855Z" fill="#D8E1FE"/>
<path d="M1333.32 507.457H1317.85V542.588H1333.32V507.457Z" fill="#EFF6FE"/>
<path d="M1333.32 514.099H1317.85V532.592H1333.32V514.099Z" fill="#D8E1FE"/>
<path d="M1390.05 484.633H1354.64V542.588H1390.05V484.633Z" fill="#EFF6FE"/>
<path d="M1390.05 514.099H1354.64V532.592H1390.05V514.099Z" fill="#D8E1FE"/>
<path d="M1407.25 531.592H1296.19V812.991H1407.25V531.592Z" fill="#EFF6FE"/>
<path d="M1329.53 563.513H1319.23V576.963H1329.53V563.513Z" fill="#D8E1FE"/>
<path d="M1329.53 591.235H1319.23V604.685H1329.53V591.235Z" fill="#D8E1FE"/>
<path d="M1329.53 618.946H1319.23V632.396H1329.53V618.946Z" fill="#D8E1FE"/>
<path d="M1329.53 646.668H1319.23V660.118H1329.53V646.668Z" fill="#D8E1FE"/>
<path d="M1329.53 674.391H1319.23V687.841H1329.53V674.391Z" fill="#D8E1FE"/>
<path d="M1329.53 702.102H1319.23V715.552H1329.53V702.102Z" fill="#D8E1FE"/>
<path d="M1329.53 729.824H1319.23V743.274H1329.53V729.824Z" fill="#D8E1FE"/>
<path d="M1359.8 563.513H1349.5V576.963H1359.8V563.513Z" fill="#D8E1FE"/>
<path d="M1359.8 591.235H1349.5V604.685H1359.8V591.235Z" fill="#D8E1FE"/>
<path d="M1359.8 618.946H1349.5V632.396H1359.8V618.946Z" fill="#D8E1FE"/>
<path d="M1359.8 646.668H1349.5V660.118H1359.8V646.668Z" fill="#D8E1FE"/>
<path d="M1359.8 674.391H1349.5V687.841H1359.8V674.391Z" fill="#D8E1FE"/>
<path d="M1359.8 702.102H1349.5V715.552H1359.8V702.102Z" fill="#D8E1FE"/>
<path d="M1359.8 729.824H1349.5V743.274H1359.8V729.824Z" fill="#D8E1FE"/>
<path d="M1390.05 563.513H1379.75V576.963H1390.05V563.513Z" fill="#D8E1FE"/>
<path d="M1390.05 591.235H1379.75V604.685H1390.05V591.235Z" fill="#D8E1FE"/>
<path d="M1390.05 618.946H1379.75V632.396H1390.05V618.946Z" fill="#D8E1FE"/>
<path d="M1390.05 646.668H1379.75V660.118H1390.05V646.668Z" fill="#D8E1FE"/>
<path d="M1390.05 674.391H1379.75V687.841H1390.05V674.391Z" fill="#D8E1FE"/>
<path d="M1390.05 702.102H1379.75V715.552H1390.05V702.102Z" fill="#D8E1FE"/>
<path d="M1390.05 729.824H1379.75V743.274H1390.05V729.824Z" fill="#D8E1FE"/>
<path d="M1529.96 607.173H1492.55V812.99H1529.96V607.173Z" fill="#EFF6FE"/>
<path d="M1775.77 548.163H1711.84V812.99H1775.77V548.163Z" fill="#EFF6FE"/>
<path d="M1484.96 361.86H1420.77V302.773L1484.96 333.038V361.86Z" fill="#EFF6FE"/>
<path d="M1499.2 348.155H1406.54V812.99H1499.2V348.155Z" fill="#EFF6FE"/>
<path d="M1484.96 341.746H1420.77V348.166H1484.96V341.746Z" fill="#D8E1FE"/>
<path d="M1439.21 648.69H1429.75V663.273H1439.21V648.69Z" fill="#D8E1FE"/>
<path d="M1439.21 624.099H1429.75V638.682H1439.21V624.099Z" fill="#D8E1FE"/>
<path d="M1439.21 599.498H1429.75V614.081H1439.21V599.498Z" fill="#D8E1FE"/>
<path d="M1439.21 550.318H1429.75V564.901H1439.21V550.318Z" fill="#D8E1FE"/>
<path d="M1439.21 501.127H1429.75V515.71H1439.21V501.127Z" fill="#D8E1FE"/>
<path d="M1439.21 476.536H1429.75V491.119H1439.21V476.536Z" fill="#D8E1FE"/>
<path d="M1439.21 427.345H1429.75V441.928H1439.21V427.345Z" fill="#D8E1FE"/>
<path d="M1439.21 378.154H1429.75V392.737H1439.21V378.154Z" fill="#D8E1FE"/>
<path d="M1457.6 574.908H1448.14V589.491H1457.6V574.908Z" fill="#D8E1FE"/>
<path d="M1457.6 550.318H1448.14V564.901H1457.6V550.318Z" fill="#D8E1FE"/>
<path d="M1457.6 525.717H1448.14V540.3H1457.6V525.717Z" fill="#D8E1FE"/>
<path d="M1457.6 476.536H1448.14V491.119H1457.6V476.536Z" fill="#D8E1FE"/>
<path d="M1457.6 378.154H1448.14V392.737H1457.6V378.154Z" fill="#D8E1FE"/>
<path d="M1475.99 648.69H1466.53V663.273H1475.99V648.69Z" fill="#D8E1FE"/>
<path d="M1475.99 574.908H1466.53V589.491H1475.99V574.908Z" fill="#D8E1FE"/>
<path d="M1475.99 525.717H1466.53V540.3H1475.99V525.717Z" fill="#D8E1FE"/>
<path d="M1475.99 476.536H1466.53V491.119H1475.99V476.536Z" fill="#D8E1FE"/>
<path d="M1475.99 451.935H1466.53V466.518H1475.99V451.935Z" fill="#D8E1FE"/>
<path d="M1475.99 402.755H1466.53V417.338H1475.99V402.755Z" fill="#D8E1FE"/>
<path d="M710.422 361.86H646.233V302.773L710.422 333.038V361.86Z" fill="#EFF6FE"/>
<path d="M724.656 348.155H632V812.99H724.656V348.155Z" fill="#EFF6FE"/>
<path d="M710.422 341.746H646.233V348.166H710.422V341.746Z" fill="#D8E1FE"/>
<path d="M664.667 648.69H655.211V663.273H664.667V648.69Z" fill="#D8E1FE"/>
<path d="M664.667 624.099H655.211V638.682H664.667V624.099Z" fill="#D8E1FE"/>
<path d="M664.667 599.498H655.211V614.081H664.667V599.498Z" fill="#D8E1FE"/>
<path d="M664.667 550.318H655.211V564.901H664.667V550.318Z" fill="#D8E1FE"/>
<path d="M664.667 501.127H655.211V515.71H664.667V501.127Z" fill="#D8E1FE"/>
<path d="M664.667 476.536H655.211V491.119H664.667V476.536Z" fill="#D8E1FE"/>
<path d="M664.667 427.345H655.211V441.928H664.667V427.345Z" fill="#D8E1FE"/>
<path d="M664.667 378.154H655.211V392.737H664.667V378.154Z" fill="#D8E1FE"/>
<path d="M683.055 574.908H673.6V589.491H683.055V574.908Z" fill="#D8E1FE"/>
<path d="M683.055 550.318H673.6V564.901H683.055V550.318Z" fill="#D8E1FE"/>
<path d="M683.055 525.717H673.6V540.3H683.055V525.717Z" fill="#D8E1FE"/>
<path d="M683.055 476.536H673.6V491.119H683.055V476.536Z" fill="#D8E1FE"/>
<path d="M683.055 378.154H673.6V392.737H683.055V378.154Z" fill="#D8E1FE"/>
<path d="M701.445 648.69H691.989V663.273H701.445V648.69Z" fill="#D8E1FE"/>
<path d="M701.445 574.908H691.989V589.491H701.445V574.908Z" fill="#D8E1FE"/>
<path d="M701.445 525.717H691.989V540.3H701.445V525.717Z" fill="#D8E1FE"/>
<path d="M701.445 476.536H691.989V491.119H701.445V476.536Z" fill="#D8E1FE"/>
<path d="M701.445 451.935H691.989V466.518H701.445V451.935Z" fill="#D8E1FE"/>
<path d="M701.445 402.755H691.989V417.338H701.445V402.755Z" fill="#D8E1FE"/>
<path d="M1753.92 612.304H1818.1V553.217L1753.92 583.482V612.304Z" fill="#EFF6FE"/>
<path d="M1739.69 812.989H1832.34V598.597H1739.69V812.989Z" fill="#EAF4FF"/>
<path d="M1818.11 592.179H1753.92V598.599H1818.11V592.179Z" fill="#D8E1FE"/>
<path d="M1809.13 726.98H1799.67V741.564H1809.13V726.98Z" fill="#D8E1FE"/>
<path d="M1809.13 702.379H1799.67V716.962H1809.13V702.379Z" fill="#D8E1FE"/>
<path d="M1809.13 677.789H1799.67V692.372H1809.13V677.789Z" fill="#D8E1FE"/>
<path d="M1809.13 653.199H1799.67V667.782H1809.13V653.199Z" fill="#D8E1FE"/>
<path d="M1799.67 643.184L1809.12 643.184L1809.12 628.601L1799.67 628.601L1799.67 643.184Z" fill="#D8E1FE"/>
<path d="M1790.73 726.98H1781.27V741.564H1790.73V726.98Z" fill="#D8E1FE"/>
<path d="M1790.73 702.379H1781.27V716.962H1790.73V702.379Z" fill="#D8E1FE"/>
<path d="M1790.73 677.789H1781.27V692.372H1790.73V677.789Z" fill="#D8E1FE"/>
<path d="M1790.73 653.199H1781.27V667.782H1790.73V653.199Z" fill="#D8E1FE"/>
<path d="M1781.29 643.184L1790.74 643.184L1790.74 628.601L1781.29 628.601L1781.29 643.184Z" fill="#D8E1FE"/>
<path d="M1772.34 726.98H1762.89V741.564H1772.34V726.98Z" fill="#D8E1FE"/>
<path d="M1772.34 702.379H1762.89V716.962H1772.34V702.379Z" fill="#D8E1FE"/>
<path d="M1772.34 677.789H1762.89V692.372H1772.34V677.789Z" fill="#D8E1FE"/>
<path d="M1772.34 653.199H1762.89V667.782H1772.34V653.199Z" fill="#D8E1FE"/>
<path d="M1762.89 643.184L1772.35 643.184L1772.35 628.601L1762.89 628.601L1762.89 643.184Z" fill="#D8E1FE"/>
<path d="M1894.62 264.266H1881.84V365.259H1894.62V264.266Z" fill="#EFF6FE"/>
<path d="M1894.62 355.907H1881.84V365.259H1894.62V355.907Z" fill="#D8E1FE"/>
<path d="M1869.82 317.589H1846.57V376.676H1869.82V317.589Z" fill="#EFF6FE"/>
<path d="M1925 362.971H1832.34V812.979H1925V362.971Z" fill="#EFF6FE"/>
<path d="M1869.82 356.562H1846.57V362.982H1869.82V356.562Z" fill="#D8E1FE"/>
<path d="M1865.01 638.916H1855.55V653.499H1865.01V638.916Z" fill="#D8E1FE"/>
<path d="M1865.01 614.326H1855.55V628.909H1865.01V614.326Z" fill="#D8E1FE"/>
<path d="M1865.01 540.544H1855.55V555.127H1865.01V540.544Z" fill="#D8E1FE"/>
<path d="M1865.01 515.943H1855.55V530.526H1865.01V515.943Z" fill="#D8E1FE"/>
<path d="M1865.01 466.762H1855.55V481.346H1865.01V466.762Z" fill="#D8E1FE"/>
<path d="M1865.01 392.981H1855.55V407.564H1865.01V392.981Z" fill="#D8E1FE"/>
<path d="M1883.4 589.724H1873.94V604.307H1883.4V589.724Z" fill="#D8E1FE"/>
<path d="M1883.4 515.943H1873.94V530.526H1883.4V515.943Z" fill="#D8E1FE"/>
<path d="M1883.4 491.353H1873.94V505.936H1883.4V491.353Z" fill="#D8E1FE"/>
<path d="M1883.4 442.161H1873.94V456.744H1883.4V442.161Z" fill="#D8E1FE"/>
<path d="M1883.4 417.571H1873.94V432.154H1883.4V417.571Z" fill="#D8E1FE"/>
<path d="M1901.79 638.916H1892.33V653.499H1901.79V638.916Z" fill="#D8E1FE"/>
<path d="M1901.79 589.724H1892.33V604.307H1901.79V589.724Z" fill="#D8E1FE"/>
<path d="M1901.79 540.544H1892.33V555.127H1901.79V540.544Z" fill="#D8E1FE"/>
<path d="M1901.79 491.353H1892.33V505.936H1901.79V491.353Z" fill="#D8E1FE"/>
<path d="M1901.79 417.571H1892.33V432.154H1901.79V417.571Z" fill="#D8E1FE"/>
<path d="M501.378 554.584L516.845 554.584L516.845 519.454L501.378 519.454L501.378 554.584Z" fill="#EFF6FE"/>
<path d="M501.378 554.577L516.845 554.577L516.845 536.084L501.378 536.084L501.378 554.577Z" fill="#D8E1FE"/>
<path d="M444.641 554.578L480.052 554.578L480.052 496.623L444.641 496.623L444.641 554.578Z" fill="#EFF6FE"/>
<path d="M444.641 554.577L480.052 554.577L480.052 536.084L444.641 536.084L444.641 554.577Z" fill="#D8E1FE"/>
<path d="M427.437 813.878L538.504 813.878L538.504 543.586L427.437 543.586L427.437 813.878Z" fill="#EFF6FE"/>
<path d="M505.16 588.961L515.46 588.961L515.46 575.511L505.16 575.511L505.16 588.961Z" fill="#D8E1FE"/>
<path d="M515.474 603.23H505.174V616.68H515.474V603.23Z" fill="#D8E1FE"/>
<path d="M515.474 630.941H505.174V644.391H515.474V630.941Z" fill="#D8E1FE"/>
<path d="M515.474 658.663H505.174V672.113H515.474V658.663Z" fill="#D8E1FE"/>
<path d="M515.474 686.385H505.174V699.836H515.474V686.385Z" fill="#D8E1FE"/>
<path d="M515.474 714.097H505.174V727.547H515.474V714.097Z" fill="#D8E1FE"/>
<path d="M515.474 741.819H505.174V755.269H515.474V741.819Z" fill="#D8E1FE"/>
<path d="M474.905 588.961L485.205 588.961L485.205 575.511L474.905 575.511L474.905 588.961Z" fill="#D8E1FE"/>
<path d="M485.208 603.23H474.908V616.68H485.208V603.23Z" fill="#D8E1FE"/>
<path d="M485.208 630.941H474.908V644.391H485.208V630.941Z" fill="#D8E1FE"/>
<path d="M485.208 658.663H474.908V672.113H485.208V658.663Z" fill="#D8E1FE"/>
<path d="M485.208 686.385H474.908V699.836H485.208V686.385Z" fill="#D8E1FE"/>
<path d="M485.208 714.097H474.908V727.547H485.208V714.097Z" fill="#D8E1FE"/>
<path d="M485.208 741.819H474.908V755.269H485.208V741.819Z" fill="#D8E1FE"/>
<path d="M444.638 588.961L454.938 588.961L454.938 575.511L444.638 575.511L444.638 588.961Z" fill="#D8E1FE"/>
<path d="M454.951 603.23H444.651V616.68H454.951V603.23Z" fill="#D8E1FE"/>
<path d="M454.951 630.941H444.651V644.391H454.951V630.941Z" fill="#D8E1FE"/>
<path d="M454.951 658.663H444.651V672.113H454.951V658.663Z" fill="#D8E1FE"/>
<path d="M454.951 686.385H444.651V699.836H454.951V686.385Z" fill="#D8E1FE"/>
<path d="M454.951 714.097H444.651V727.547H454.951V714.097Z" fill="#D8E1FE"/>
<path d="M454.951 741.819H444.651V755.269H454.951V741.819Z" fill="#D8E1FE"/>
<path d="M285.353 813.88L348.253 813.88L348.253 584.75L285.353 584.75L285.353 813.88Z" fill="#EFF6FE"/>
<path d="M390.028 813.875L427.439 813.875L427.439 619.164L390.028 619.164L390.028 813.875Z" fill="#EFF6FE"/>
<path d="M189.93 813.878L286.797 813.878L286.797 610.559L189.93 610.559L189.93 813.878Z" fill="#D8E1FE"/>
<path d="M144.222 813.876L208.155 813.876L208.155 560.156L144.222 560.156L144.222 813.876Z" fill="#EFF6FE"/>
<path d="M218.227 652.979L226.604 652.979L226.604 633.942L218.227 633.942L218.227 652.979Z" fill="#D8E1FE"/>
<path d="M218.227 652.974L226.604 652.974L226.604 642.945L218.227 642.945L218.227 652.974Z" fill="#D8E1FE"/>
<path d="M187.48 652.976L206.669 652.976L206.669 621.566L187.48 621.566L187.48 652.976Z" fill="#D8E1FE"/>
<path d="M187.48 652.974L206.669 652.974L206.669 642.945L187.48 642.945L187.48 652.974Z" fill="#D8E1FE"/>
<path d="M178.147 813.874L238.347 813.874L238.347 647.019L178.147 647.019L178.147 813.874Z" fill="#EFF6FE"/>
<path d="M220.281 671.61L225.858 671.61L225.858 664.324L220.281 664.324L220.281 671.61Z" fill="#D8E1FE"/>
<path d="M225.863 679.344H220.285V686.63H225.863V679.344Z" fill="#D8E1FE"/>
<path d="M225.863 694.371H220.285V701.657H225.863V694.371Z" fill="#D8E1FE"/>
<path d="M225.863 709.399H220.285V716.685H225.863V709.399Z" fill="#D8E1FE"/>
<path d="M225.863 724.426H220.285V731.712H225.863V724.426Z" fill="#D8E1FE"/>
<path d="M225.863 739.442H220.285V746.728H225.863V739.442Z" fill="#D8E1FE"/>
<path d="M225.863 754.469H220.285V761.755H225.863V754.469Z" fill="#D8E1FE"/>
<path d="M203.885 671.61L209.463 671.61L209.463 664.324L203.885 664.324L203.885 671.61Z" fill="#D8E1FE"/>
<path d="M209.452 679.344H203.874V686.63H209.452V679.344Z" fill="#D8E1FE"/>
<path d="M209.452 694.371H203.874V701.657H209.452V694.371Z" fill="#D8E1FE"/>
<path d="M209.452 709.399H203.874V716.685H209.452V709.399Z" fill="#D8E1FE"/>
<path d="M209.452 724.426H203.874V731.712H209.452V724.426Z" fill="#D8E1FE"/>
<path d="M209.452 739.442H203.874V746.728H209.452V739.442Z" fill="#D8E1FE"/>
<path d="M209.452 754.469H203.874V761.755H209.452V754.469Z" fill="#D8E1FE"/>
<path d="M187.479 671.61L193.057 671.61L193.057 664.324L187.479 664.324L187.479 671.61Z" fill="#D8E1FE"/>
<path d="M193.051 679.344H187.474V686.63H193.051V679.344Z" fill="#D8E1FE"/>
<path d="M193.051 694.371H187.474V701.657H193.051V694.371Z" fill="#D8E1FE"/>
<path d="M193.051 709.399H187.474V716.685H193.051V709.399Z" fill="#D8E1FE"/>
<path d="M193.051 724.426H187.474V731.712H193.051V724.426Z" fill="#D8E1FE"/>
<path d="M193.051 739.442H187.474V746.728H193.051V739.442Z" fill="#D8E1FE"/>
<path d="M193.051 754.469H187.474V761.755H193.051V754.469Z" fill="#D8E1FE"/>
<path d="M166.074 624.299H101.896V565.212L166.074 595.478V624.299Z" fill="#EFF6FE"/>
<path d="M180.308 610.594H87.6523V813.879H180.308V610.594Z" fill="#EFF6FE"/>
<path d="M166.085 604.174H101.896V610.594H166.085V604.174Z" fill="#D8E1FE"/>
<path d="M120.319 738.976H110.863V753.559H120.319V738.976Z" fill="#D8E1FE"/>
<path d="M120.319 714.374H110.863V728.957H120.319V714.374Z" fill="#D8E1FE"/>
<path d="M120.319 689.784H110.863V704.367H120.319V689.784Z" fill="#D8E1FE"/>
<path d="M120.319 665.194H110.863V679.777H120.319V665.194Z" fill="#D8E1FE"/>
<path d="M120.319 640.593H110.863V655.176H120.319V640.593Z" fill="#D8E1FE"/>
<path d="M138.708 738.976H129.252V753.559H138.708V738.976Z" fill="#D8E1FE"/>
<path d="M138.708 714.374H129.252V728.957H138.708V714.374Z" fill="#D8E1FE"/>
<path d="M138.708 689.784H129.252V704.367H138.708V689.784Z" fill="#D8E1FE"/>
<path d="M138.708 665.194H129.252V679.777H138.708V665.194Z" fill="#D8E1FE"/>
<path d="M138.708 640.593H129.252V655.176H138.708V640.593Z" fill="#D8E1FE"/>
<path d="M157.108 738.976H147.652V753.559H157.108V738.976Z" fill="#D8E1FE"/>
<path d="M157.108 714.374H147.652V728.957H157.108V714.374Z" fill="#D8E1FE"/>
<path d="M157.108 689.784H147.652V704.367H157.108V689.784Z" fill="#D8E1FE"/>
<path d="M157.108 665.194H147.652V679.777H157.108V665.194Z" fill="#D8E1FE"/>
<path d="M157.108 640.593H147.652V655.176H157.108V640.593Z" fill="#D8E1FE"/>
<path d="M293.608 372.3H263.175V431.388H293.608V372.3Z" fill="#EFF6FE"/>
<path d="M293.608 422.036H263.175V431.388H293.608V422.036Z" fill="#D8E1FE"/>
<path d="M310.486 428.289H246.297V487.376H310.486V428.289Z" fill="#EFF6FE"/>
<path d="M232.058 813.872L324.714 813.872L324.714 473.675L232.058 473.675L232.058 813.872Z" fill="#EFF6FE"/>
<path d="M310.486 467.262H246.297V473.682H310.486V467.262Z" fill="#D8E1FE"/>
<path d="M301.507 725.026H292.052V739.609H301.507V725.026Z" fill="#D8E1FE"/>
<path d="M301.507 675.834H292.052V690.417H301.507V675.834Z" fill="#D8E1FE"/>
<path d="M301.507 651.244H292.052V665.827H301.507V651.244Z" fill="#D8E1FE"/>
<path d="M301.507 626.654H292.052V641.237H301.507V626.654Z" fill="#D8E1FE"/>
<path d="M301.507 577.462H292.052V592.045H301.507V577.462Z" fill="#D8E1FE"/>
<path d="M301.507 528.271H292.052V542.854H301.507V528.271Z" fill="#D8E1FE"/>
<path d="M283.119 700.435H273.663V715.018H283.119V700.435Z" fill="#D8E1FE"/>
<path d="M283.119 651.244H273.663V665.827H283.119V651.244Z" fill="#D8E1FE"/>
<path d="M283.119 552.861H273.663V567.444H283.119V552.861Z" fill="#D8E1FE"/>
<path d="M283.119 528.271H273.663V542.854H283.119V528.271Z" fill="#D8E1FE"/>
<path d="M264.73 749.616H255.274V764.199H264.73V749.616Z" fill="#D8E1FE"/>
<path d="M264.73 675.834H255.274V690.417H264.73V675.834Z" fill="#D8E1FE"/>
<path d="M264.73 626.654H255.274V641.237H264.73V626.654Z" fill="#D8E1FE"/>
<path d="M264.73 577.462H255.274V592.045H264.73V577.462Z" fill="#D8E1FE"/>
<path d="M264.73 552.861H255.274V567.444H264.73V552.861Z" fill="#D8E1FE"/>
<path d="M255.266 518.257L264.722 518.257L264.722 503.674L255.266 503.674L255.266 518.257Z" fill="#D8E1FE"/>
<path d="M600.546 372.3H570.112V431.388H600.546V372.3Z" fill="#EFF6FE"/>
<path d="M600.546 422.036H570.112V431.388H600.546V422.036Z" fill="#D8E1FE"/>
<path d="M617.423 428.289H553.234V487.376H617.423V428.289Z" fill="#EFF6FE"/>
<path d="M538.996 813.872L631.651 813.872L631.651 473.675L538.996 473.675L538.996 813.872Z" fill="#EFF6FE"/>
<path d="M617.423 467.262H553.234V473.682H617.423V467.262Z" fill="#D8E1FE"/>
<path d="M608.445 725.026H598.989V739.609H608.445V725.026Z" fill="#D8E1FE"/>
<path d="M608.445 675.834H598.989V690.417H608.445V675.834Z" fill="#D8E1FE"/>
<path d="M608.445 651.244H598.989V665.827H608.445V651.244Z" fill="#D8E1FE"/>
<path d="M608.445 626.654H598.989V641.237H608.445V626.654Z" fill="#D8E1FE"/>
<path d="M608.445 577.462H598.989V592.045H608.445V577.462Z" fill="#D8E1FE"/>
<path d="M608.445 528.271H598.989V542.854H608.445V528.271Z" fill="#D8E1FE"/>
<path d="M590.056 700.435H580.601V715.018H590.056V700.435Z" fill="#D8E1FE"/>
<path d="M590.056 651.244H580.601V665.827H590.056V651.244Z" fill="#D8E1FE"/>
<path d="M590.056 552.861H580.601V567.444H590.056V552.861Z" fill="#D8E1FE"/>
<path d="M590.056 528.271H580.601V542.854H590.056V528.271Z" fill="#D8E1FE"/>
<path d="M571.667 749.616H562.212V764.199H571.667V749.616Z" fill="#D8E1FE"/>
<path d="M571.667 675.834H562.212V690.417H571.667V675.834Z" fill="#D8E1FE"/>
<path d="M571.667 626.654H562.212V641.237H571.667V626.654Z" fill="#D8E1FE"/>
<path d="M571.667 577.462H562.212V592.045H571.667V577.462Z" fill="#D8E1FE"/>
<path d="M571.667 552.861H562.212V567.444H571.667V552.861Z" fill="#D8E1FE"/>
<path d="M562.204 518.257L571.659 518.257L571.659 503.674L562.204 503.674L562.204 518.257Z" fill="#D8E1FE"/>
<path d="M38.1518 276.261H25.374V377.254H38.1518V276.261Z" fill="#EFF6FE"/>
<path d="M38.1518 367.902H25.374V377.254H38.1518V367.902Z" fill="#D8E1FE"/>
<path d="M73.4183 329.584H50.1738V388.672H73.4183V329.584Z" fill="#EFF6FE"/>
<path d="M-5.00027 813.882L87.6553 813.882L87.6553 374.98L-5.00027 374.98L-5.00027 813.882Z" fill="#EFF6FE"/>
<path d="M73.4183 368.557H50.1738V374.977H73.4183V368.557Z" fill="#D8E1FE"/>
<path d="M64.4409 650.911H54.9854V665.494H64.4409V650.911Z" fill="#D8E1FE"/>
<path d="M64.4409 626.321H54.9854V640.904H64.4409V626.321Z" fill="#D8E1FE"/>
<path d="M64.4409 552.539H54.9854V567.122H64.4409V552.539Z" fill="#D8E1FE"/>
<path d="M64.4409 527.938H54.9854V542.521H64.4409V527.938Z" fill="#D8E1FE"/>
<path d="M64.4409 478.758H54.9854V493.341H64.4409V478.758Z" fill="#D8E1FE"/>
<path d="M54.9927 419.549L64.4482 419.549L64.4482 404.966L54.9927 404.966L54.9927 419.549Z" fill="#D8E1FE"/>
<path d="M46.0522 601.719H36.5967V616.303H46.0522V601.719Z" fill="#D8E1FE"/>
<path d="M46.0522 527.938H36.5967V542.521H46.0522V527.938Z" fill="#D8E1FE"/>
<path d="M46.0522 503.348H36.5967V517.931H46.0522V503.348Z" fill="#D8E1FE"/>
<path d="M46.0522 454.156H36.5967V468.739H46.0522V454.156Z" fill="#D8E1FE"/>
<path d="M46.0522 429.566H36.5967V444.149H46.0522V429.566Z" fill="#D8E1FE"/>
<path d="M27.6626 650.911H18.207V665.494H27.6626V650.911Z" fill="#D8E1FE"/>
<path d="M27.6626 601.719H18.207V616.303H27.6626V601.719Z" fill="#D8E1FE"/>
<path d="M27.6626 552.539H18.207V567.122H27.6626V552.539Z" fill="#D8E1FE"/>
<path d="M27.6626 503.348H18.207V517.931H27.6626V503.348Z" fill="#D8E1FE"/>
<path d="M27.6626 429.566H18.207V444.149H27.6626V429.566Z" fill="#D8E1FE"/>
<path d="M360.837 501.782L385.882 501.782L385.882 482.745L360.837 482.745L360.837 501.782Z" fill="#D8E1FE"/>
<path d="M360.837 501.778L385.882 501.778L385.882 491.749L360.837 491.749L360.837 501.778Z" fill="#D8E1FE"/>
<path d="M337.424 813.879L397.624 813.879L397.624 495.817L337.424 495.817L337.424 813.879Z" fill="#EFF6FE"/>
<path d="M379.557 520.414L385.135 520.414L385.135 513.128L379.557 513.128L379.557 520.414Z" fill="#D8E1FE"/>
<path d="M385.13 588.247H379.552V595.533H385.13V588.247Z" fill="#D8E1FE"/>
<path d="M385.13 618.291H379.552V625.576H385.13V618.291Z" fill="#D8E1FE"/>
<path d="M385.13 648.345H379.552V655.631H385.13V648.345Z" fill="#D8E1FE"/>
<path d="M385.13 663.373H379.552V670.659H385.13V663.373Z" fill="#D8E1FE"/>
<path d="M363.151 520.414L368.729 520.414L368.729 513.128L363.151 513.128L363.151 520.414Z" fill="#D8E1FE"/>
<path d="M368.73 558.193H363.152V565.478H368.73V558.193Z" fill="#D8E1FE"/>
<path d="M368.73 588.247H363.152V595.533H368.73V588.247Z" fill="#D8E1FE"/>
<path d="M368.73 648.345H363.152V655.631H368.73V648.345Z" fill="#D8E1FE"/>
<path d="M363.151 685.689L368.729 685.689L368.729 678.403L363.151 678.403L363.151 685.689Z" fill="#D8E1FE"/>
<path d="M352.33 528.149H346.752V535.435H352.33V528.149Z" fill="#D8E1FE"/>
<path d="M352.33 558.193H346.752V565.478H352.33V558.193Z" fill="#D8E1FE"/>
<path d="M352.33 588.247H346.752V595.533H352.33V588.247Z" fill="#D8E1FE"/>
<path d="M352.33 618.291H346.752V625.576H352.33V618.291Z" fill="#D8E1FE"/>
<path d="M352.33 633.318H346.752V640.604H352.33V633.318Z" fill="#D8E1FE"/>
<path d="M352.33 648.345H346.752V655.631H352.33V648.345Z" fill="#D8E1FE"/>
<path d="M352.33 663.373H346.752V670.659H352.33V663.373Z" fill="#D8E1FE"/>
<path d="M346.745 685.689L352.323 685.689L352.323 678.403L346.745 678.403L346.745 685.689Z" fill="#D8E1FE"/>
<path d="M1429.46 189.696C1433.56 189.696 1436.89 186.374 1436.89 182.276C1436.89 178.179 1433.56 174.857 1429.46 174.857C1425.36 174.857 1422.04 178.179 1422.04 182.276C1422.04 186.374 1425.36 189.696 1429.46 189.696Z" fill="white"/>
<path d="M1272.06 227.903L1267.81 227.969L1267.74 223.715C1267.71 221.949 1266.25 220.539 1264.49 220.572C1262.72 220.606 1261.31 222.061 1261.34 223.826L1261.41 228.08L1257.15 228.147C1255.39 228.18 1253.97 229.635 1254.01 231.401C1254.04 233.167 1255.5 234.578 1257.26 234.544L1261.52 234.478L1261.59 238.732C1261.62 240.498 1263.07 241.908 1264.84 241.875C1266.61 241.841 1268.02 240.387 1267.99 238.621L1267.92 234.367L1272.17 234.3C1273.94 234.267 1275.35 232.812 1275.32 231.046C1275.3 229.28 1273.84 227.869 1272.06 227.903Z" fill="white"/>
</svg>
